# xmcd
#
# Track frame offsets:
#	182
#	14830
#	26930
#	39420
#	53420
#	66142
#	78395
#	95950
#	109732
#	121080
#	133015
#	146295
#	157160
#	170752
#	183470
#	209157
#	224762
#	236507
#	248712
#	260030
#
# Disc length: 3671 seconds
#
# Revision: 5
# Processed by: cddbd v1.5.2PL0 Copyright (c) Steve Scherf et al.
# Submitted via: audiograbber 1.83.01
#
DISCID=350e5514
DTITLE=Various Artist - The Blues Box Vol.2
DYEAR=1993
DGENRE=Blues
TTITLE0=Muddy Waters - Baby Please Don't Go
TTITLE1=Elmore James - Mean Mistreatin' Mama
TTITLE2=Bo Diddley - Road Runner
TTITLE3=Howlin' wolf - Smokestack Lightnin'
TTITLE4=Sonny Boy Wilson - Keep It To Yourself
TTITLE5=Little Walter - Last Night
TTITLE6=Mike Bloomfield - Linda Lou
TTITLE7=Memphis Slim - My Baby
TTITLE8=Howlin' Wolf - My Country Sugar Mama
TTITLE9=Memphis Slim - Really Got The Blues
TTITLE10=Sonny Boy Williamson - Sad To Be Alone
TTITLE11=John Lee Hooker - Send Me The Pillow You Dream On
TTITLE12=Memphis Slim - Slim's Blues
TTITLE13=Elmore James - The Sky Is Ccrying
TTITLE14=Mike Bloomfield - Uncle Bob's Barrelhouse Blues
TTITLE15=B.B. King - Walkin' And Cryin'
TTITLE16=Little Milton - We're Gonna Make It
TTITLE17=Memphis Slim - Mother Earth
TTITLE18=Sonny Boy Williamson - Your Funeral - My Trial
TTITLE19=Otis Rush and Little Water - Blue Mood
EXTD=
EXTT0=
EXTT1=
EXTT2=
EXTT3=
EXTT4=
EXTT5=
EXTT6=
EXTT7=
EXTT8=
EXTT9=
EXTT10=
EXTT11=
EXTT12=
EXTT13=
EXTT14=
EXTT15=
EXTT16=
EXTT17=
EXTT18=
EXTT19=
PLAYORDER=
